<svg xmlns="http://www.w3.org/2000/svg" viewBox="0 0 938.244 544.165">
  <path d="M598.88 124.965h0l1.28-.16 1.28-.16 1.28-.32 1.28-.48 1.28-.64 1.12-.64 1.28-.8 1.12-.8.96-.96 1.12-.96.8-1.12.96-1.12.8-1.28.64-1.28.64-1.28.48-1.28.48-1.44.32-1.44.16-1.44v-1.28h0v-1.44l-.16-1.44-.32-1.44-.48-1.28-.48-1.44-.64-1.28-.64-1.28-.8-1.12-.96-1.28-.8-1.12-1.12-.96-.96-.96-1.12-.8-1.28-.8-1.12-.64-1.28-.64-1.28-.48-1.28-.32-1.28-.16h-25.44V124.965h24.16" fill="none" stroke="#000" stroke-width=".64" stroke-linecap="round" stroke-linejoin="round" stroke-miterlimit="10"/>
  <path d="M570.08 94.725h4.64M563.36 94.725h6.72M570.08 117.285h4.64M563.36 117.285h6.72M620.8 106.085h-4.64M627.52 106.085h-6.72" fill="none" stroke="#c04040" stroke-width=".64" stroke-linecap="round" stroke-linejoin="round" stroke-miterlimit="10"/>
  <path d="M491.68 136.165h3.04l3.04-.16 3.2-.32 2.88-.48 3.04-.64 2.88-.64 2.72-.8 2.72-.8 2.56-.96 2.4-.96 2.24-1.12 2.08-1.28 1.92-1.12 1.76-1.28 1.44-1.28 1.28-1.44.96-1.28.64-1.44.48-1.44.16-1.44h0l-.16-1.28-.48-1.44-.64-1.44-.96-1.44-1.28-1.28-1.44-1.28-1.76-1.28-1.92-1.28-2.08-1.12-2.24-1.12-2.4-.96-2.56-.96-2.72-.8-2.72-.8-2.88-.64-3.04-.64-2.88-.48-3.2-.32-3.04-.16-3.04-.16h0l.64.16.8.16.8.32.8.48.64.64.8.64.64.8.64.8.64.96.64.96.64 1.12.48 1.12.48 1.28.48 1.28.32 1.28.32 1.28.16 1.44.32 1.44v1.44l.16 1.28h0l-.16 1.44v1.44l-.32 1.44-.16 1.28-.32 1.44-.32 1.28-.48 1.28-.48 1.12-.48 1.28-.64 1.12-.64.96-.64.96-.64.8-.64.8-.8.64-.64.64-.8.48-.8.32-.8.16h-.64" fill="none" stroke="#000" stroke-width=".64" stroke-linecap="round" stroke-linejoin="round" stroke-miterlimit="10"/>
  <path d="M494.56 106.085h4.64M487.84 106.085h6.72M494.56 128.645h4.64M487.84 128.645h6.72M537.76 117.285h-4.64M544.48 117.285h-6.72" fill="none" stroke="#c04040" stroke-width=".64" stroke-linecap="round" stroke-linejoin="round" stroke-miterlimit="10"/>
  <path d="M699.2 75.845h-45.28v41.28h45.28z" fill="none" stroke="#000" stroke-width=".64" stroke-linecap="round" stroke-linejoin="round" stroke-miterlimit="10"/>
  <path d="M649.44 106.085h4.48M646.4 106.085h3.04" fill="none" stroke="#c04040" stroke-width=".64" stroke-linecap="round" stroke-linejoin="round" stroke-miterlimit="10"/>
  <text transform="translate(655.52 108.805)" style="-inkscape-font-specification:sans-serif" font-weight="400" font-size="7.52" font-family="sans-serif">
    <tspan x="0" y="0" style="-inkscape-font-specification:sans-serif">D</tspan>
  </text>
  <path d="M649.44 87.205h4.48M653.92 84.805v5.28M653.92 84.805l4.64 2.4M658.56 87.205l-4.64 2.88M646.4 87.205h3.04M703.84 106.085h-4.48M706.88 106.085h-3.04" fill="none" stroke="#c04040" stroke-width=".64" stroke-linecap="round" stroke-linejoin="round" stroke-miterlimit="10"/>
  <text transform="translate(691.84 108.805)" style="-inkscape-font-specification:sans-serif" font-weight="400" font-size="7.52" font-family="sans-serif">
    <tspan x="0" y="0" style="-inkscape-font-specification:sans-serif">Q</tspan>
  </text>
  <path d="M676.64 71.205v4.64M676.64 68.325v2.88" fill="none" stroke="#c04040" stroke-width=".64" stroke-linecap="round" stroke-linejoin="round" stroke-miterlimit="10"/>
  <text transform="matrix(0 -.02295 .02295 0 679.353 92.321)" style="-inkscape-font-specification:sans-serif" font-weight="400" font-size="327.68" font-family="sans-serif">
    <tspan x="0 235.9296 452.19839" y="0">RST</tspan>
  </text>
  <text transform="translate(653.92 127.045)" style="-inkscape-font-specification:sans-serif" font-weight="400" font-size="7.52" font-family="sans-serif" fill="#c04040">
    <tspan x="0 5.4304938 10.393502 16.334074 20.469913 25.432922 30.395931 35.826424" y="0">REG_SYNC</tspan>
  </text>
  <text transform="translate(653.92 137.605)" style="-inkscape-font-specification:sans-serif" font-weight="400" font-size="7.52" font-family="sans-serif" fill="#c04040">
    <tspan x="0 4.1358404 8.3179445 12.604179 16.786283 21.147717" y="0">done_s</tspan>
  </text>
  <path d="M540.64 5.925v88.8M627.52 106.085h18.88M646.4 87.205h-18.88M729.44 194.725h145.44M729.44 194.725H468.96M468.96 194.725v-66.08" fill="none" stroke="#00f" stroke-width=".64" stroke-linecap="round" stroke-linejoin="round" stroke-miterlimit="10"/>
  <path d="M269.12.325h22.72M269.12 11.685h22.72M291.84 11.685l11.04-5.6M302.88 6.085L291.84.325M269.12 11.685V.325" fill="none" stroke="#000" stroke-width=".64" stroke-linecap="round" stroke-linejoin="round" stroke-miterlimit="10"/>
  <text transform="matrix(.03097 0 0 .02978 271.353 9.602)" style="-inkscape-font-specification:sans-serif" font-weight="400" font-size="327.68" font-family="sans-serif" fill="#008020">
    <tspan x="0 163.84 258.86719 439.09119 553.77917" y="0">start</tspan>
  </text>
  <path d="M304.16 4.485h-2.88v2.88h2.88z" fill="none" stroke="red" stroke-width=".64" stroke-linecap="round" stroke-linejoin="round" stroke-miterlimit="10"/>
  <path d="M799.04 75.845h1.28l1.28.32 1.28.32 1.28.32 1.28.64 1.12.64 1.28.8.96.8 1.12.96.96 1.12.96 1.12.96 1.12.8 1.12.64 1.28.64 1.28.48 1.44.48 1.28.32 1.44.16 1.44v1.44h0v1.44l-.16 1.28-.32 1.44-.48 1.44-.48 1.28-.64 1.28-.64 1.28-.8 1.28-.96 1.12-.96 1.12-.96.96-1.12.96-.96.96-1.28.64-1.12.8-1.28.48-1.28.48-1.28.32-1.28.16-1.28.16h-24.16v-37.76h24.16" fill="none" stroke="#000" stroke-width=".64" stroke-linecap="round" stroke-linejoin="round" stroke-miterlimit="10"/>
  <path d="M774.72 105.605c0-1.41-1-2.56-2.24-2.56-1.24 0-2.24 1.15-2.24 2.56 0 1.41 1 2.56 2.24 2.56 1.24 0 2.24-1.15 2.24-2.56zM763.52 106.085h6.72M770.24 83.365h4.64M763.52 83.365h6.72M820.96 94.725h-4.64M827.68 94.725h-6.72" fill="none" stroke="#c04040" stroke-width=".64" stroke-linecap="round" stroke-linejoin="round" stroke-miterlimit="10"/>
  <path d="M729.44 106.085v88.64" fill="none" stroke="#00f" stroke-width=".64" stroke-linecap="round" stroke-linejoin="round" stroke-miterlimit="10"/>
  <path d="M827.68 94.725h47.2" fill="none" stroke="green" stroke-width=".64" stroke-linecap="round" stroke-linejoin="round" stroke-miterlimit="10"/>
  <path d="M412.16 56.965h-45.12v60.16h45.12z" fill="none" stroke="#000" stroke-width=".64" stroke-linecap="round" stroke-linejoin="round" stroke-miterlimit="10"/>
  <path d="M362.4 106.085h4.64M359.52 106.085h2.88" fill="none" stroke="#c04040" stroke-width=".64" stroke-linecap="round" stroke-linejoin="round" stroke-miterlimit="10"/>
  <text transform="translate(368.48 108.805)" style="-inkscape-font-specification:sans-serif" font-weight="400" font-size="7.52" font-family="sans-serif">
    <tspan x="0" y="0" style="-inkscape-font-specification:sans-serif">D</tspan>
  </text>
  <path d="M362.4 68.325h4.64M367.04 65.925v5.28M367.04 65.925l4.48 2.4M371.52 68.325l-4.48 2.88M359.52 68.325h2.88M416.8 106.085h-4.48M419.84 106.085h-3.04" fill="none" stroke="#c04040" stroke-width=".64" stroke-linecap="round" stroke-linejoin="round" stroke-miterlimit="10"/>
  <text transform="translate(404.96 108.805)" style="-inkscape-font-specification:sans-serif" font-weight="400" font-size="7.52" font-family="sans-serif">
    <tspan x="0" y="0" style="-inkscape-font-specification:sans-serif">Q</tspan>
  </text>
  <path d="M362.4 87.205h4.64M359.52 87.205h2.88" fill="none" stroke="#c04040" stroke-width=".64" stroke-linecap="round" stroke-linejoin="round" stroke-miterlimit="10"/>
  <text transform="translate(368.48 89.925)" style="-inkscape-font-specification:sans-serif" font-weight="400" font-size="7.52" font-family="sans-serif">
    <tspan x="0 5.4304938" y="0">CE</tspan>
  </text>
  <path d="M389.6 52.325v4.64M389.6 49.445v2.88" fill="none" stroke="#c04040" stroke-width=".64" stroke-linecap="round" stroke-linejoin="round" stroke-miterlimit="10"/>
  <text transform="matrix(0 -.02295 .02295 0 392.314 73.441)" style="-inkscape-font-specification:sans-serif" font-weight="400" font-size="327.68" font-family="sans-serif">
    <tspan x="0 235.9296 452.19839" y="0">RST</tspan>
  </text>
  <text transform="translate(367.04 127.045)" style="-inkscape-font-specification:sans-serif" font-weight="400" font-size="7.52" font-family="sans-serif" fill="#c04040">
    <tspan x="0 5.4304938 10.393502 16.334074 20.469913 25.432922 30.395931 35.826424" y="0">REG_SYNC</tspan>
  </text>
  <text transform="translate(367.04 136.165)" style="-inkscape-font-specification:sans-serif" font-weight="400" font-size="7.52" font-family="sans-serif" fill="#c04040">
    <tspan x="0 5.2637968 7.8204985 9.6252289 11.655551 16.016983 20.152822" y="0">write_s</tspan>
  </text>
  <path d="M917.6 88.965h-42.72M917.6 100.325h-42.72M874.88 100.325v-11.36M917.6 88.965l11.04 5.92M928.64 94.885l-11.04 5.44" fill="none" stroke="#000" stroke-width=".64" stroke-linecap="round" stroke-linejoin="round" stroke-miterlimit="10"/>
  <text transform="matrix(.03097 0 0 .02978 877.426 98.242)" style="-inkscape-font-specification:sans-serif" font-weight="400" font-size="327.68" font-family="sans-serif" fill="#008020">
    <tspan x="0 275.25119 458.75198 737.27997 924.05756 1110.8352" y="0">mem_en</tspan>
  </text>
  <path d="M876.16 93.125h-2.72v2.88h2.72z" fill="none" stroke="red" stroke-width=".64" stroke-linecap="round" stroke-linejoin="round" stroke-miterlimit="10"/>
  <path d="M900.48 189.125h-25.6M900.48 200.485h-25.6M874.88 200.485v-11.36M900.48 189.125l10.88 5.76M911.36 194.885l-10.88 5.6" fill="none" stroke="#000" stroke-width=".64" stroke-linecap="round" stroke-linejoin="round" stroke-miterlimit="10"/>
  <text transform="matrix(.03097 0 0 .02978 877.584 198.4)" style="-inkscape-font-specification:sans-serif" font-weight="400" font-size="327.68" font-family="sans-serif" fill="#008020">
    <tspan x="0 180.224 367.00159 553.77917" y="0">done</tspan>
  </text>
  <path d="M876.16 193.285h-2.72v2.88h2.72z" fill="none" stroke="red" stroke-width=".64" stroke-linecap="round" stroke-linejoin="round" stroke-miterlimit="10"/>
  <path d="M919.36 243.845h-44.48M919.36 255.205h-44.48M874.88 255.205v-11.36M919.36 243.845l10.88 5.76M930.24 249.605l-10.88 5.6" fill="none" stroke="#000" stroke-width=".64" stroke-linecap="round" stroke-linejoin="round" stroke-miterlimit="10"/>
  <text transform="matrix(.03097 0 0 .02978 877.584 253.124)" style="-inkscape-font-specification:sans-serif" font-weight="400" font-size="327.68" font-family="sans-serif" fill="#008020">
    <tspan x="0 275.25119 458.75198 737.27997 924.05756 1163.2639" y="0">mem_we</tspan>
  </text>
  <path d="M876.16 248.005h-2.72v2.88h2.72z" fill="none" stroke="red" stroke-width=".64" stroke-linecap="round" stroke-linejoin="round" stroke-miterlimit="10"/>
  <path d="M442.56 249.445h432.32M419.84 106.085h22.72M302.88 5.925h237.76" fill="none" stroke="#00f" stroke-width=".64" stroke-linecap="round" stroke-linejoin="round" stroke-miterlimit="10"/>
  <path d="M306.56 142.245h0l.16-1.28.16-1.28.32-1.28.48-1.28.48-1.28.8-1.12.64-1.28.96-1.12.96-.96.96-1.12 1.12-.8 1.12-.96 1.28-.8 1.28-.64 1.28-.64 1.28-.48 1.44-.48 1.44-.32 1.28-.16h2.88l1.44.16 1.44.32 1.28.48 1.44.48 1.28.64 1.28.64 1.12.8 1.12.96 1.12.8 1.12 1.12.96.96.8 1.12.8 1.28.64 1.12.64 1.28.32 1.28.32 1.28.32 1.28v25.44H306.56v-24.16" fill="none" stroke="#000" stroke-width=".64" stroke-linecap="round" stroke-linejoin="round" stroke-miterlimit="10"/>
  <path d="M338.88 168.645c0-1.23-1.14-2.24-2.56-2.24-1.42 0-2.56 1.01-2.56 2.24 0 1.23 1.14 2.24 2.56 2.24 1.42 0 2.56-1.01 2.56-2.24zM336.8 177.765v-6.72M314.08 171.045v-4.64M314.08 177.765v-6.72M325.44 120.325v4.64M325.44 113.605v6.72" fill="none" stroke="#c04040" stroke-width=".64" stroke-linecap="round" stroke-linejoin="round" stroke-miterlimit="10"/>
  <path d="M104.48 181.605H59.2v60.16h45.28z" fill="none" stroke="#000" stroke-width=".64" stroke-linecap="round" stroke-linejoin="round" stroke-miterlimit="10"/>
  <path d="M54.72 230.565h4.48M51.68 230.565h3.04" fill="none" stroke="#c04040" stroke-width=".64" stroke-linecap="round" stroke-linejoin="round" stroke-miterlimit="10"/>
  <text transform="translate(60.8 233.445)" style="-inkscape-font-specification:sans-serif" font-weight="400" font-size="7.52" font-family="sans-serif">
    <tspan x="0" y="0" style="-inkscape-font-specification:sans-serif">D</tspan>
  </text>
  <path d="M54.72 192.805h4.48M59.2 190.565v5.28M59.2 190.565l4.64 2.24M63.84 192.805l-4.64 3.04M51.68 192.805h3.04M109.12 230.565h-4.48M112.16 230.565h-3.04" fill="none" stroke="#c04040" stroke-width=".64" stroke-linecap="round" stroke-linejoin="round" stroke-miterlimit="10"/>
  <text transform="translate(97.12 233.445)" style="-inkscape-font-specification:sans-serif" font-weight="400" font-size="7.52" font-family="sans-serif">
    <tspan x="0" y="0" style="-inkscape-font-specification:sans-serif">Q</tspan>
  </text>
  <path d="M54.72 211.685h4.48M51.68 211.685h3.04" fill="none" stroke="#c04040" stroke-width=".64" stroke-linecap="round" stroke-linejoin="round" stroke-miterlimit="10"/>
  <text transform="translate(60.8 214.565)" style="-inkscape-font-specification:sans-serif" font-weight="400" font-size="7.52" font-family="sans-serif">
    <tspan x="0 5.4304938" y="0">CE</tspan>
  </text>
  <path d="M81.92 176.965v4.64M81.92 173.925v3.04" fill="none" stroke="#c04040" stroke-width=".64" stroke-linecap="round" stroke-linejoin="round" stroke-miterlimit="10"/>
  <text transform="matrix(0 -.02295 .02295 0 84.64 198.08)" style="-inkscape-font-specification:sans-serif" font-weight="400" font-size="327.68" font-family="sans-serif">
    <tspan x="0 235.9296 452.19839" y="0">RST</tspan>
  </text>
  <text transform="translate(59.2 251.685)" style="-inkscape-font-specification:sans-serif" font-weight="400" font-size="7.52" font-family="sans-serif" fill="#c04040">
    <tspan x="0 5.4304938 10.393502 16.334074 20.469913 25.432922 30.395931 35.826424" y="0">REG_SYNC</tspan>
  </text>
  <text transform="translate(59.2 260.805)" style="-inkscape-font-specification:sans-serif" font-weight="400" font-size="7.52" font-family="sans-serif" fill="#c04040">
    <tspan x="0 5.2637968 8.9484549 13.309887 15.03942 19.175261 23.536692 27.371744 29.46096 31.491282 33.296013 37.582249 41.764351 45.900192 48.456894 53.946281 59.210079 63.045132 67.331367 71.692795 74.249496 76.806198 80.942039 83.197952 87.333794" y="0">wz_id_st[log2(Nwz+1)-1:0]</tspan>
  </text>
  <path d="M155.52 230.565h-43.36" fill="none" stroke="#0000a0" stroke-width="2.88" stroke-linecap="round" stroke-linejoin="round" stroke-miterlimit="10"/>
  <path d="M61.44 79.525h0l-1.28.16-1.28.16-1.28.32-1.28.48-1.28.64-1.12.64-1.12.8-1.12.8-1.12.96-.96.96-.96 1.12-.96 1.12-.64 1.28-.8 1.28-.64 1.28-.48 1.28-.48 1.44-.16 1.44-.32 1.44v1.28h0v1.44l.32 1.44.16 1.44.48 1.28.48 1.44.64 1.28.8 1.28.64 1.12.96 1.28.96 1.12.96.96 1.12.96 1.12.8 1.12.8 1.12.64 1.28.64 1.28.48 1.28.32 1.28.16h25.6V79.525H61.44" fill="none" stroke="#000" stroke-width=".64" stroke-linecap="round" stroke-linejoin="round" stroke-miterlimit="10"/>
  <path d="M90.08 109.285c0-1.41-.96-2.56-2.16-2.56-1.2 0-2.16 1.15-2.16 2.56 0 1.41.96 2.56 2.16 2.56 1.2 0 2.16-1.15 2.16-2.56zM96.96 109.765h-6.72M90.24 87.205h-4.48M96.96 87.205h-6.72M39.68 98.405h4.48M32.8 98.405h6.88" fill="none" stroke="#c04040" stroke-width=".64" stroke-linecap="round" stroke-linejoin="round" stroke-miterlimit="10"/>
  <path d="M219.68 87.205h139.84" fill="none" stroke="green" stroke-width=".64" stroke-linecap="round" stroke-linejoin="round" stroke-miterlimit="10"/>
  <path d="M2.56 211.685h49.12" fill="none" stroke="#00f" stroke-width=".64" stroke-linecap="round" stroke-linejoin="round" stroke-miterlimit="10"/>
  <path d="M116.64 409.925h-4.48M123.52 409.925h-6.88" fill="none" stroke="#c04040" stroke-width=".64" stroke-linecap="round" stroke-linejoin="round" stroke-miterlimit="10"/>
  <text transform="translate(105.6 412.805)" style="-inkscape-font-specification:sans-serif" font-weight="400" font-size="7.52" font-family="sans-serif">
    <tspan x="0" y="0" style="-inkscape-font-specification:sans-serif">A</tspan>
  </text>
  <path d="M116.64 447.685h-4.48M123.52 447.685h-6.88" fill="none" stroke="#c04040" stroke-width=".64" stroke-linecap="round" stroke-linejoin="round" stroke-miterlimit="10"/>
  <text transform="translate(105.6 450.565)" style="-inkscape-font-specification:sans-serif" font-weight="400" font-size="7.52" font-family="sans-serif">
    <tspan x="0" y="0" style="-inkscape-font-specification:sans-serif">B</tspan>
  </text>
  <path d="M77.44 428.805h4.48M70.56 428.805h6.88" fill="none" stroke="#c04040" stroke-width=".64" stroke-linecap="round" stroke-linejoin="round" stroke-miterlimit="10"/>
  <path d="M112.16 394.885l-30.24 15.04v37.76l30.24 15.2v-28.32l-13.28-5.76 13.28-5.6v-28.32" fill="none" stroke="#000" stroke-width=".64" stroke-linecap="round" stroke-linejoin="round" stroke-miterlimit="10"/>
  <text transform="matrix(.03097 0 0 .02978 91.035 432.484)" style="-inkscape-font-specification:sans-serif" font-weight="400" font-size="327.68" font-family="sans-serif">
    <tspan x="0" y="0" style="-inkscape-font-specification:sans-serif">+</tspan>
  </text>
  <path d="M155.52 294.885v-64.32" fill="none" stroke="#0000a0" stroke-width="2.88" stroke-linecap="round" stroke-linejoin="round" stroke-miterlimit="10"/>
  <path d="M70.56 428.805h-68M2.56 332.645v-102.08M2.56 230.565h49.12" fill="none" stroke="#0080ff" stroke-width="2.88" stroke-linecap="round" stroke-linejoin="round" stroke-miterlimit="10"/>
  <path d="M427.36 279.525v68l30.24-15.04v-37.76l-30.24-15.2" fill="none" stroke="#000" stroke-width=".64" stroke-linecap="round" stroke-linejoin="round" stroke-miterlimit="10"/>
  <path d="M422.88 294.885h4.48M416.16 294.885h6.72" fill="none" stroke="#c04040" stroke-width=".64" stroke-linecap="round" stroke-linejoin="round" stroke-miterlimit="10"/>
  <text transform="translate(428.96 297.605)" style="-inkscape-font-specification:sans-serif" font-weight="400" font-size="7.52" font-family="sans-serif">
    <tspan x="0" y="0" style="-inkscape-font-specification:sans-serif">0</tspan>
  </text>
  <path d="M422.88 332.645h4.48M416.16 332.645h6.72" fill="none" stroke="#c04040" stroke-width=".64" stroke-linecap="round" stroke-linejoin="round" stroke-miterlimit="10"/>
  <text transform="translate(428.96 335.365)" style="-inkscape-font-specification:sans-serif" font-weight="400" font-size="7.52" font-family="sans-serif">
    <tspan x="0" y="0" style="-inkscape-font-specification:sans-serif">1</tspan>
  </text>
  <path d="M462.24 313.765h-4.64M468.96 313.765h-6.72M442.56 282.725v4.48M442.56 276.005v6.72" fill="none" stroke="#c04040" stroke-width=".64" stroke-linecap="round" stroke-linejoin="round" stroke-miterlimit="10"/>
  <text transform="rotate(-90 374.094 -71.185) scale(.02295)" style="-inkscape-font-specification:sans-serif" font-weight="400" font-size="327.68" font-family="sans-serif">
    <tspan x="0 216.2688 432.5376" y="0">SEL</tspan>
  </text>
  <path d="M442.56 194.725v-88.64" fill="none" stroke="#00f" stroke-width=".64" stroke-linecap="round" stroke-linejoin="round" stroke-miterlimit="10"/>
  <path d="M731.2 360.965h-45.12v60.16h45.12z" fill="none" stroke="#000" stroke-width=".64" stroke-linecap="round" stroke-linejoin="round" stroke-miterlimit="10"/>
  <path d="M681.6 409.925h4.48M678.56 409.925h3.04" fill="none" stroke="#c04040" stroke-width=".64" stroke-linecap="round" stroke-linejoin="round" stroke-miterlimit="10"/>
  <text transform="translate(687.52 412.805)" style="-inkscape-font-specification:sans-serif" font-weight="400" font-size="7.52" font-family="sans-serif">
    <tspan x="0" y="0" style="-inkscape-font-specification:sans-serif">D</tspan>
  </text>
  <path d="M681.6 372.165h4.48M686.08 369.925v5.28M686.08 369.925l4.48 2.24M690.56 372.165l-4.48 3.04M678.56 372.165h3.04M736 409.925h-4.64M738.88 409.925H736" fill="none" stroke="#c04040" stroke-width=".64" stroke-linecap="round" stroke-linejoin="round" stroke-miterlimit="10"/>
  <text transform="translate(724 412.805)" style="-inkscape-font-specification:sans-serif" font-weight="400" font-size="7.52" font-family="sans-serif">
    <tspan x="0" y="0" style="-inkscape-font-specification:sans-serif">Q</tspan>
  </text>
  <path d="M681.6 391.045h4.48M678.56 391.045h3.04" fill="none" stroke="#c04040" stroke-width=".64" stroke-linecap="round" stroke-linejoin="round" stroke-miterlimit="10"/>
  <text transform="translate(687.52 393.925)" style="-inkscape-font-specification:sans-serif" font-weight="400" font-size="7.52" font-family="sans-serif">
    <tspan x="0 5.4304938" y="0">CE</tspan>
  </text>
  <path d="M708.8 356.325v4.64M708.8 353.285v3.04" fill="none" stroke="#c04040" stroke-width=".64" stroke-linecap="round" stroke-linejoin="round" stroke-miterlimit="10"/>
  <text transform="rotate(-90 544.426 -166.941) scale(.02295)" style="-inkscape-font-specification:sans-serif" font-weight="400" font-size="327.68" font-family="sans-serif">
    <tspan x="0 235.9296 452.19839" y="0">RST</tspan>
  </text>
  <text transform="translate(686.08 431.045)" style="-inkscape-font-specification:sans-serif" font-weight="400" font-size="7.52" font-family="sans-serif" fill="#c04040">
    <tspan x="0 5.4304938 10.393502 16.334074 20.469913 25.432922 30.395931 35.826424" y="0">REG_SYNC</tspan>
  </text>
  <text transform="translate(686.08 440.165)" style="-inkscape-font-specification:sans-serif" font-weight="400" font-size="7.52" font-family="sans-serif" fill="#c04040">
    <tspan x="0 5.2637968 8.9484549 13.309887 15.03942 19.175261 23.536692 27.371744 31.507586 34.064285 36.153503 37.883038 42.244469 46.38031 50.741741 53.298443 58.728935 63.992733 67.677391 70.234093 72.790794 77.152222 79.182549 83.543976" y="0">wz_id_cur[log2(Nwz)-1:0]</tspan>
  </text>
  <path d="M468.96 313.765h405.92M738.88 409.925h136" fill="none" stroke="#0000a0" stroke-width="2.88" stroke-linecap="round" stroke-linejoin="round" stroke-miterlimit="10"/>
  <path d="M903.68 404.325h-28.8M903.68 415.685h-28.8M874.88 415.685v-11.36M903.68 404.325l11.04 5.76M914.72 410.085l-11.04 5.6" fill="none" stroke="#000" stroke-width=".64" stroke-linecap="round" stroke-linejoin="round" stroke-miterlimit="10"/>
  <text transform="matrix(.03097 0 0 .02978 877.426 413.6)" style="-inkscape-font-specification:sans-serif" font-weight="400" font-size="327.68" font-family="sans-serif" fill="#008020">
    <tspan x="0 239.20639 403.04639 589.82397 661.91357" y="0">wz_id</tspan>
  </text>
  <path d="M876.16 408.485h-2.72v2.88h2.72z" fill="none" stroke="red" stroke-width=".64" stroke-linecap="round" stroke-linejoin="round" stroke-miterlimit="10"/>
  <path d="M926.88 308.005h-52M926.88 319.365h-52M874.88 319.365v-11.36M926.88 308.005l11.04 5.92M937.92 313.925l-11.04 5.44" fill="none" stroke="#000" stroke-width=".64" stroke-linecap="round" stroke-linejoin="round" stroke-miterlimit="10"/>
  <text transform="matrix(.03097 0 0 .02978 877.584 317.284)" style="-inkscape-font-specification:sans-serif" font-weight="400" font-size="327.68" font-family="sans-serif" fill="#008020">
    <tspan x="0 275.25119 458.75198 737.27997 924.05756 1110.8352 1297.6128 1477.8368" y="0">mem_addr</tspan>
  </text>
  <path d="M876.16 312.165h-2.72v2.88h2.72z" fill="none" stroke="red" stroke-width=".64" stroke-linecap="round" stroke-linejoin="round" stroke-miterlimit="10"/>
  <path d="M442.56 249.445v-54.72" fill="none" stroke="#00f" stroke-width=".64" stroke-linecap="round" stroke-linejoin="round" stroke-miterlimit="10"/>
  <path d="M155.52 409.925h523.04" fill="none" stroke="#0000a0" stroke-width="2.88" stroke-linecap="round" stroke-linejoin="round" stroke-miterlimit="10"/>
  <text transform="matrix(.03097 0 0 .02978 112.156 228.48)" style="-inkscape-font-specification:sans-serif" font-weight="400" font-size="327.68" font-family="sans-serif" fill="#008020">
    <tspan x="0 239.20639 403.04639 589.82397 661.91357 848.69116 1032.192 1199.3087" y="0">wz_id_st</tspan>
  </text>
  <path d="M113.44 229.125h-2.88v2.88h2.88z" fill="none" stroke="red" stroke-width=".64" stroke-linecap="round" stroke-linejoin="round" stroke-miterlimit="10"/>
  <path d="M276.64 62.565h15.2M276.64 73.925h15.2M291.84 73.925l11.04-5.44M302.88 68.485l-11.04-5.92M276.64 73.925v-11.36" fill="none" stroke="#000" stroke-width=".64" stroke-linecap="round" stroke-linejoin="round" stroke-miterlimit="10"/>
  <text transform="matrix(.03097 0 0 .02978 278.876 71.846)" style="-inkscape-font-specification:sans-serif" font-weight="400" font-size="327.68" font-family="sans-serif" fill="#008020">
    <tspan x="0 163.84 239.20639" y="0">clk</tspan>
  </text>
  <path d="M304.16 66.725h-2.88v2.88h2.88z" fill="none" stroke="red" stroke-width=".64" stroke-linecap="round" stroke-linejoin="round" stroke-miterlimit="10"/>
  <path d="M277.76 30.565h14.08M277.76 41.765h14.08M291.84 41.765l11.04-5.44M302.88 36.325l-11.04-5.76M277.76 41.765v-11.2" fill="none" stroke="#000" stroke-width=".64" stroke-linecap="round" stroke-linejoin="round" stroke-miterlimit="10"/>
  <text transform="matrix(.03097 0 0 .02978 279.994 39.683)" style="-inkscape-font-specification:sans-serif" font-weight="400" font-size="327.68" font-family="sans-serif" fill="#008020">
    <tspan x="0 108.1344 275.25119" y="0">rst</tspan>
  </text>
  <path d="M304.16 34.725h-2.88v2.72h2.88z" fill="none" stroke="red" stroke-width=".64" stroke-linecap="round" stroke-linejoin="round" stroke-miterlimit="10"/>
  <path d="M302.88 68.325h56.64M627.52 87.205v-45.44M676.64 68.325v-26.56" fill="none" stroke="#00f" stroke-width=".64" stroke-linecap="round" stroke-linejoin="round" stroke-miterlimit="10"/>
  <text transform="matrix(0 -.03097 .02978 0 674.398 53.122)" style="-inkscape-font-specification:sans-serif" font-weight="400" font-size="327.68" font-family="sans-serif" fill="#008020">
    <tspan x="0 108.1344 275.25119" y="0">rst</tspan>
  </text>
  <path d="M677.92 40.325h-2.72v2.88h2.72z" fill="none" stroke="red" stroke-width=".64" stroke-linecap="round" stroke-linejoin="round" stroke-miterlimit="10"/>
  <text transform="matrix(0 -.03097 .02978 0 625.277 54.242)" style="-inkscape-font-specification:sans-serif" font-weight="400" font-size="327.68" font-family="sans-serif" fill="#008020">
    <tspan x="0 163.84 239.20639" y="0">clk</tspan>
  </text>
  <path d="M628.96 40.325h-2.88v2.88h2.88z" fill="none" stroke="red" stroke-width=".64" stroke-linecap="round" stroke-linejoin="round" stroke-miterlimit="10"/>
  <path d="M678.56 372.165h-18.88M659.68 372.165v-43.36M708.8 353.285v-24.48" fill="none" stroke="#00f" stroke-width=".64" stroke-linecap="round" stroke-linejoin="round" stroke-miterlimit="10"/>
  <text transform="matrix(0 -.03097 .02978 0 706.554 340.161)" style="-inkscape-font-specification:sans-serif" font-weight="400" font-size="327.68" font-family="sans-serif" fill="#008020">
    <tspan x="0 108.1344 275.25119" y="0">rst</tspan>
  </text>
  <path d="M710.08 327.365h-2.88v2.72h2.88z" fill="none" stroke="red" stroke-width=".64" stroke-linecap="round" stroke-linejoin="round" stroke-miterlimit="10"/>
  <text transform="matrix(0 -.03097 .02978 0 657.436 341.28)" style="-inkscape-font-specification:sans-serif" font-weight="400" font-size="327.68" font-family="sans-serif" fill="#008020">
    <tspan x="0 163.84 239.20639" y="0">clk</tspan>
  </text>
  <path d="M660.96 327.365h-2.88v2.72h2.88z" fill="none" stroke="red" stroke-width=".64" stroke-linecap="round" stroke-linejoin="round" stroke-miterlimit="10"/>
  <path d="M302.88 36.165h86.72M389.6 36.165v13.28M51.68 192.805H32.8M32.8 192.805v-45.28M81.92 173.925v-26.4" fill="none" stroke="#00f" stroke-width=".64" stroke-linecap="round" stroke-linejoin="round" stroke-miterlimit="10"/>
  <text transform="matrix(0 -.03097 .02978 0 79.679 158.881)" style="-inkscape-font-specification:sans-serif" font-weight="400" font-size="327.68" font-family="sans-serif" fill="#008020">
    <tspan x="0 108.1344 275.25119" y="0">rst</tspan>
  </text>
  <path d="M83.2 146.085h-2.72v2.88h2.72z" fill="none" stroke="red" stroke-width=".64" stroke-linecap="round" stroke-linejoin="round" stroke-miterlimit="10"/>
  <text transform="matrix(0 -.03097 .02978 0 30.56 160.001)" style="-inkscape-font-specification:sans-serif" font-weight="400" font-size="327.68" font-family="sans-serif" fill="#008020">
    <tspan x="0 163.84 239.20639" y="0">clk</tspan>
  </text>
  <path d="M34.24 146.085h-2.88v2.88h2.88z" fill="none" stroke="red" stroke-width=".64" stroke-linecap="round" stroke-linejoin="round" stroke-miterlimit="10"/>
  <text transform="matrix(.03097 0 0 .02978 827.668 92.643)" style="-inkscape-font-specification:sans-serif" font-weight="400" font-size="327.68" font-family="sans-serif" fill="#008020">
    <tspan x="0 239.20639 422.70718 530.84161 697.95837 773.32477 956.82556" y="0">working</tspan>
  </text>
  <path d="M828.96 93.125h-2.72v2.88h2.72z" fill="none" stroke="red" stroke-width=".64" stroke-linecap="round" stroke-linejoin="round" stroke-miterlimit="10"/>
  <path d="M204.48 440.165H174.4v15.04h30.08z" fill="none" stroke="#000" stroke-width=".64" stroke-linecap="round" stroke-linejoin="round" stroke-miterlimit="10"/>
  <path d="M169.92 447.685h4.48M166.88 447.685h3.04" fill="none" stroke="#c04040" stroke-width=".64" stroke-linecap="round" stroke-linejoin="round" stroke-miterlimit="10"/>
  <text transform="translate(174.4 438.565)" style="-inkscape-font-specification:sans-serif" font-weight="400" font-size="7.52" font-family="sans-serif" fill="#c04040">
    <tspan x="0 5.4304938 11.371064 16.801558 21.764566" y="0">CONST</tspan>
  </text>
  <path d="M123.52 447.685h43.36" fill="none" stroke="#00f" stroke-width="2.88" stroke-linecap="round" stroke-linejoin="round" stroke-miterlimit="10"/>
  <path d="M442.56 106.085h45.28M468.96 128.645h18.88M540.64 94.725h22.72M544.48 117.285h18.88M623.84 106.085h3.68M729.44 106.085h34.08M706.88 106.085h22.56M540.64 5.925h188.8M729.44 5.925v77.44M763.52 83.365h-34.08" fill="none" stroke="#00f" stroke-width=".64" stroke-linecap="round" stroke-linejoin="round" stroke-miterlimit="10"/>
  <text transform="matrix(.03097 0 0 .02978 22.077 426.72)" style="-inkscape-font-specification:sans-serif" font-weight="400" font-size="327.68" font-family="sans-serif" fill="#008020">
    <tspan x="0 239.20639 403.04639 589.82397 661.91357 848.69116 1032.192 1104.2816 1291.0592 1458.176" y="0">wz_id_incr</tspan>
  </text>
  <path d="M72 427.365h-2.88v2.88H72z" fill="none" stroke="red" stroke-width=".64" stroke-linecap="round" stroke-linejoin="round" stroke-miterlimit="10"/>
  <path d="M219.68 87.205v-51.04" fill="none" stroke="green" stroke-width=".64" stroke-linecap="round" stroke-linejoin="round" stroke-miterlimit="10"/>
  <path d="M325.44 113.605v-7.52M325.44 106.085h34.08M336.8 177.765v16.96M336.8 194.725h105.76M219.68 109.765H96.96" fill="none" stroke="#00f" stroke-width=".64" stroke-linecap="round" stroke-linejoin="round" stroke-miterlimit="10"/>
  <path d="M219.68 87.205H96.96" fill="none" stroke="green" stroke-width=".64" stroke-linecap="round" stroke-linejoin="round" stroke-miterlimit="10"/>
  <path d="M32.8 98.405H2.56M2.56 98.405v113.28" fill="none" stroke="#00f" stroke-width=".64" stroke-linecap="round" stroke-linejoin="round" stroke-miterlimit="10"/>
  <text transform="matrix(.03097 0 0 .02978 185.758 451.364)" style="-inkscape-font-specification:sans-serif" font-weight="400" font-size="327.68" font-family="sans-serif">
    <tspan x="0" y="0" style="-inkscape-font-specification:sans-serif">1</tspan>
  </text>
  <text transform="matrix(.03097 0 0 .02978 814.387 407.845)" style="-inkscape-font-specification:sans-serif" font-weight="400" font-size="327.68" font-family="sans-serif" fill="#008020">
    <tspan x="0 72.0896 258.86719 439.09119 625.86877 737.27997 976.48639 1218.9696 1386.0864" y="0">log2(Nwz)</tspan>
  </text>
  <path d="M868.32 402.405l-15.04 15.2" fill="none" stroke="#000" stroke-width=".64" stroke-linecap="round" stroke-linejoin="round" stroke-miterlimit="10"/>
  <text transform="matrix(.03097 0 0 .02978 803.187 311.684)" style="-inkscape-font-specification:sans-serif" font-weight="400" font-size="327.68" font-family="sans-serif" fill="#008020">
    <tspan x="0 72.0896 258.86719 439.09119 625.86877 737.27997 976.48639 1218.9696 1386.0864 1576.1407 1762.9183" y="0">log2(Nwz+2)</tspan>
  </text>
  <path d="M868.8 306.085l-15.04 15.2" fill="none" stroke="#000" stroke-width=".64" stroke-linecap="round" stroke-linejoin="round" stroke-miterlimit="10"/>
  <path d="M234.08 230.565h4.48M227.36 230.565h6.72" fill="none" stroke="#c04040" stroke-width=".64" stroke-linecap="round" stroke-linejoin="round" stroke-miterlimit="10"/>
  <text transform="translate(240.16 233.445)" style="-inkscape-font-specification:sans-serif" font-weight="400" font-size="7.52" font-family="sans-serif">
    <tspan x="0" y="0" style="-inkscape-font-specification:sans-serif">A</tspan>
  </text>
  <path d="M234.08 268.325h4.48M227.36 268.325h6.72" fill="none" stroke="#c04040" stroke-width=".64" stroke-linecap="round" stroke-linejoin="round" stroke-miterlimit="10"/>
  <text transform="translate(240.16 271.205)" style="-inkscape-font-specification:sans-serif" font-weight="400" font-size="7.52" font-family="sans-serif">
    <tspan x="0" y="0" style="-inkscape-font-specification:sans-serif">B</tspan>
  </text>
  <path d="M273.44 249.445h-4.64M280.16 249.445h-6.72" fill="none" stroke="#c04040" stroke-width=".64" stroke-linecap="round" stroke-linejoin="round" stroke-miterlimit="10"/>
  <path d="M238.56 215.525l30.24 15.04v37.76l-30.24 15.2v-28.32l13.28-5.76-13.28-5.6v-28.32" fill="none" stroke="#000" stroke-width=".64" stroke-linecap="round" stroke-linejoin="round" stroke-miterlimit="10"/>
  <text transform="matrix(.03097 0 0 .02978 253.754 253.124)" style="-inkscape-font-specification:sans-serif" font-weight="400" font-size="327.68" font-family="sans-serif">
    <tspan x="0" y="0" style="-inkscape-font-specification:sans-serif">≥</tspan>
  </text>
  <text transform="translate(227.36 212.005)" style="-inkscape-font-specification:sans-serif" font-weight="400" font-size="7.52" font-family="sans-serif" fill="#c04040">
    <tspan x="0 5.9405708 10.53391" y="0">GTE</tspan>
  </text>
  <path d="M196.96 260.805h-30.08v15.04h30.08z" fill="none" stroke="#000" stroke-width=".64" stroke-linecap="round" stroke-linejoin="round" stroke-miterlimit="10"/>
  <path d="M201.6 268.325h-4.48M204.64 268.325h-3.04" fill="none" stroke="#c04040" stroke-width=".64" stroke-linecap="round" stroke-linejoin="round" stroke-miterlimit="10"/>
  <text transform="translate(166.88 259.205)" style="-inkscape-font-specification:sans-serif" font-weight="400" font-size="7.52" font-family="sans-serif" fill="#c04040">
    <tspan x="0 5.4304938 11.371064 16.801558 21.764566" y="0">CONST</tspan>
  </text>
  <path d="M204.64 268.325h22.72" fill="none" stroke="#00f" stroke-width="2.88" stroke-linecap="round" stroke-linejoin="round" stroke-miterlimit="10"/>
  <text transform="matrix(.03097 0 0 .02978 172.477 272.002)" style="-inkscape-font-specification:sans-serif" font-weight="400" font-size="327.68" font-family="sans-serif">
    <tspan x="0 239.20639 475.13599" y="0">Nwz</tspan>
  </text>
  <path d="M684 457.125h-45.12v60.32H684z" fill="none" stroke="#000" stroke-width=".64" stroke-linecap="round" stroke-linejoin="round" stroke-miterlimit="10"/>
  <path d="M634.4 506.245h4.48M631.36 506.245h3.04" fill="none" stroke="#c04040" stroke-width=".64" stroke-linecap="round" stroke-linejoin="round" stroke-miterlimit="10"/>
  <text transform="translate(640.32 509.125)" style="-inkscape-font-specification:sans-serif" font-weight="400" font-size="7.52" font-family="sans-serif">
    <tspan x="0" y="0" style="-inkscape-font-specification:sans-serif">D</tspan>
  </text>
  <path d="M634.4 468.485h4.48M638.88 466.245v5.28M638.88 466.245l4.48 2.24M643.36 468.485l-4.48 3.04M631.36 468.485h3.04M688.8 506.245h-4.64M691.68 506.245h-2.88" fill="none" stroke="#c04040" stroke-width=".64" stroke-linecap="round" stroke-linejoin="round" stroke-miterlimit="10"/>
  <text transform="translate(676.8 509.125)" style="-inkscape-font-specification:sans-serif" font-weight="400" font-size="7.52" font-family="sans-serif">
    <tspan x="0" y="0" style="-inkscape-font-specification:sans-serif">Q</tspan>
  </text>
  <path d="M634.4 487.365h4.48M631.36 487.365h3.04" fill="none" stroke="#c04040" stroke-width=".64" stroke-linecap="round" stroke-linejoin="round" stroke-miterlimit="10"/>
  <text transform="translate(640.32 490.245)" style="-inkscape-font-specification:sans-serif" font-weight="400" font-size="7.52" font-family="sans-serif">
    <tspan x="0 5.4304938" y="0">CE</tspan>
  </text>
  <path d="M661.6 452.645v4.48M661.6 449.605v3.04" fill="none" stroke="#c04040" stroke-width=".64" stroke-linecap="round" stroke-linejoin="round" stroke-miterlimit="10"/>
  <text transform="rotate(-90 568.983 -95.177) scale(.02295)" style="-inkscape-font-specification:sans-serif" font-weight="400" font-size="327.68" font-family="sans-serif">
    <tspan x="0 235.9296 452.19839" y="0">RST</tspan>
  </text>
  <text transform="translate(638.88 527.365)" style="-inkscape-font-specification:sans-serif" font-weight="400" font-size="7.52" font-family="sans-serif" fill="#c04040">
    <tspan x="0 5.4304938 10.393502 16.334074 20.469913 25.432922 30.395931 35.826424" y="0">REG_SYNC</tspan>
  </text>
  <text transform="translate(638.88 534.885)" style="-inkscape-font-specification:sans-serif" font-weight="400" font-size="7.52" font-family="sans-serif" fill="#c04040">
    <tspan x="0 3.835052 7.9708924 12.152997 16.138443 20.320547 22.877249 24.966465 29.102306" y="0">convert_s</tspan>
  </text>
  <path d="M155.52 230.565h71.84" fill="none" stroke="#0000a0" stroke-width="2.88" stroke-linecap="round" stroke-linejoin="round" stroke-miterlimit="10"/>
  <path d="M2.56 428.805v-96.16M2.56 332.645h413.6" fill="none" stroke="#0080ff" stroke-width="2.88" stroke-linecap="round" stroke-linejoin="round" stroke-miterlimit="10"/>
  <path d="M416.16 294.885H155.52M155.52 294.885v115.04M123.52 409.925h32" fill="none" stroke="#0000a0" stroke-width="2.88" stroke-linecap="round" stroke-linejoin="round" stroke-miterlimit="10"/>
  <path d="M314.08 194.725h-94.4M219.68 194.725v-84.96M280.16 249.445h33.92M314.08 194.725v-16.96M314.08 249.445v-54.72M442.56 276.005v-26.56M314.08 249.445v256.8M314.08 506.245h317.28" fill="none" stroke="#00f" stroke-width=".64" stroke-linecap="round" stroke-linejoin="round" stroke-miterlimit="10"/>
  <text transform="matrix(0 -.03097 .02978 0 217.437 71.523)" style="-inkscape-font-specification:sans-serif" font-weight="400" font-size="327.68" font-family="sans-serif" fill="#008020">
    <tspan x="0 239.20639 422.70718 530.84161 697.95837 773.32477 956.82556" y="0">working</tspan>
  </text>
  <path d="M221.12 34.725h-2.88v2.72h2.88z" fill="none" stroke="red" stroke-width=".64" stroke-linecap="round" stroke-linejoin="round" stroke-miterlimit="10"/>
  <path d="M631.36 468.485h-18.88M612.48 468.485v-43.36M661.6 449.605v-24.48" fill="none" stroke="#00f" stroke-width=".64" stroke-linecap="round" stroke-linejoin="round" stroke-miterlimit="10"/>
  <text transform="matrix(0 -.03097 .02978 0 659.357 436.478)" style="-inkscape-font-specification:sans-serif" font-weight="400" font-size="327.68" font-family="sans-serif" fill="#008020">
    <tspan x="0 108.1344 275.25119" y="0">rst</tspan>
  </text>
  <path d="M662.88 423.525H660v2.88h2.88z" fill="none" stroke="red" stroke-width=".64" stroke-linecap="round" stroke-linejoin="round" stroke-miterlimit="10"/>
  <text transform="matrix(0 -.03097 .02978 0 610.239 437.6)" style="-inkscape-font-specification:sans-serif" font-weight="400" font-size="327.68" font-family="sans-serif" fill="#008020">
    <tspan x="0 163.84 239.20639" y="0">clk</tspan>
  </text>
  <path d="M613.76 423.525h-2.88v2.88h2.88z" fill="none" stroke="red" stroke-width=".64" stroke-linecap="round" stroke-linejoin="round" stroke-miterlimit="10"/>
  <path d="M631.36 487.365H572.8" fill="none" stroke="green" stroke-width=".64" stroke-linecap="round" stroke-linejoin="round" stroke-miterlimit="10"/>
  <path d="M911.36 500.645h-36.48M911.36 512.005h-36.48M874.88 512.005v-11.36M911.36 500.645l10.88 5.76M922.24 506.405l-10.88 5.6" fill="none" stroke="#000" stroke-width=".64" stroke-linecap="round" stroke-linejoin="round" stroke-miterlimit="10"/>
  <text transform="matrix(.03097 0 0 .02978 877.584 509.925)" style="-inkscape-font-specification:sans-serif" font-weight="400" font-size="327.68" font-family="sans-serif" fill="#008020">
    <tspan x="0 163.84 347.34079 530.84161 697.95837 884.73596 996.14716" y="0">convert</tspan>
  </text>
  <path d="M876.16 504.805h-2.72v2.88h2.72z" fill="none" stroke="red" stroke-width=".64" stroke-linecap="round" stroke-linejoin="round" stroke-miterlimit="10"/>
  <path d="M691.68 506.245h183.2" fill="none" stroke="#00f" stroke-width=".64" stroke-linecap="round" stroke-linejoin="round" stroke-miterlimit="10"/>
  <path d="M774.72 321.285H555.84v222.56h218.88z" fill="none" stroke="#000" stroke-width=".64" stroke-linecap="round" stroke-linejoin="round" stroke-miterlimit="10"/>
  <text transform="matrix(.03097 0 0 .02978 746.547 332.323)" style="-inkscape-font-specification:sans-serif" font-weight="400" font-size="327.68" font-family="sans-serif">
    <tspan x="0 180.224 367.00159 439.09119 625.86877" y="0">delay</tspan>
  </text>
  <text transform="matrix(.03097 0 0 .02978 350.074 330.56)" style="-inkscape-font-specification:sans-serif" font-weight="400" font-size="327.68" font-family="sans-serif" fill="#008020">
    <tspan x="0 72.0896 258.86719 439.09119 625.86877 737.27997 976.48639 1218.9696 1386.0864 1576.1407 1762.9183" y="0">log2(Nwz+2)</tspan>
  </text>
  <path d="M415.68 324.965l-15.04 15.2" fill="none" stroke="#000" stroke-width=".64" stroke-linecap="round" stroke-linejoin="round" stroke-miterlimit="10"/>
  <text transform="matrix(.03097 0 0 .02978 350.074 292.804)" style="-inkscape-font-specification:sans-serif" font-weight="400" font-size="327.68" font-family="sans-serif" fill="#008020">
    <tspan x="0 72.0896 258.86719 439.09119 625.86877 737.27997 976.48639 1218.9696 1386.0864 1576.1407 1762.9183" y="0">log2(Nwz+1)</tspan>
  </text>
  <path d="M415.68 287.205l-15.04 15.2" fill="none" stroke="#000" stroke-width=".64" stroke-linecap="round" stroke-linejoin="round" stroke-miterlimit="10"/>
  <text transform="matrix(.03097 0 0 .02978 361.274 407.845)" style="-inkscape-font-specification:sans-serif" font-weight="400" font-size="327.68" font-family="sans-serif" fill="#008020">
    <tspan x="0 72.0896 258.86719 439.09119 625.86877 737.27997 976.48639 1218.9696 1386.0864" y="0">log2(Nwz)</tspan>
  </text>
  <path d="M415.2 402.405l-15.04 15.2" fill="none" stroke="#000" stroke-width=".64" stroke-linecap="round" stroke-linejoin="round" stroke-miterlimit="10"/>
  <path d="M572.8 487.365v-96.32M572.8 391.045h105.76M572.8 391.045v-50.88" fill="none" stroke="green" stroke-width=".64" stroke-linecap="round" stroke-linejoin="round" stroke-miterlimit="10"/>
  <text transform="matrix(0 -.03097 .02978 0 570.556 375.52)" style="-inkscape-font-specification:sans-serif" font-weight="400" font-size="327.68" font-family="sans-serif" fill="#008020">
    <tspan x="0 239.20639 422.70718 530.84161 697.95837 773.32477 956.82556" y="0">working</tspan>
  </text>
  <path d="M574.08 338.565h-2.72v2.88h2.72z" fill="none" stroke="red" stroke-width=".64" stroke-linecap="round" stroke-linejoin="round" stroke-miterlimit="10"/>
  <path d="M4.96 332.565c0-1.28-1.03-2.32-2.32-2.32-1.29 0-2.32 1.04-2.32 2.32 0 1.28 1.03 2.32 2.32 2.32 1.29 0 2.32-1.04 2.32-2.32zM157.76 410.005c0-1.28-1-2.32-2.24-2.32-1.24 0-2.24 1.04-2.24 2.32 0 1.28 1 2.32 2.24 2.32 1.24 0 2.24-1.04 2.24-2.32zM157.76 230.645c0-1.28-1-2.32-2.24-2.32-1.24 0-2.24 1.04-2.24 2.32 0 1.28 1 2.32 2.24 2.32 1.24 0 2.24-1.04 2.24-2.32zM157.76 294.805c0-1.28-1-2.32-2.24-2.32-1.24 0-2.24 1.04-2.24 2.32 0 1.28 1 2.32 2.24 2.32 1.24 0 2.24-1.04 2.24-2.32zM222.08 87.125c0-1.28-1.03-2.32-2.32-2.32-1.29 0-2.32 1.04-2.32 2.32 0 1.28 1.03 2.32 2.32 2.32 1.29 0 2.32-1.04 2.32-2.32zM316.48 249.525c0-1.28-1.03-2.32-2.32-2.32-1.29 0-2.32 1.04-2.32 2.32 0 1.28 1.03 2.32 2.32 2.32 1.29 0 2.32-1.04 2.32-2.32zM316.48 194.725c0-1.28-1.03-2.32-2.32-2.32-1.29 0-2.32 1.04-2.32 2.32 0 1.28 1.03 2.32 2.32 2.32 1.29 0 2.32-1.04 2.32-2.32zM444.8 194.725c0-1.28-1-2.32-2.24-2.32-1.24 0-2.24 1.04-2.24 2.32 0 1.28 1 2.32 2.24 2.32 1.24 0 2.24-1.04 2.24-2.32zM444.8 106.005c0-1.28-1-2.32-2.24-2.32-1.24 0-2.24 1.04-2.24 2.32 0 1.28 1 2.32 2.24 2.32 1.24 0 2.24-1.04 2.24-2.32zM444.8 249.525c0-1.28-1-2.32-2.24-2.32-1.24 0-2.24 1.04-2.24 2.32 0 1.28 1 2.32 2.24 2.32 1.24 0 2.24-1.04 2.24-2.32zM575.04 391.125c0-1.28-1-2.32-2.24-2.32-1.24 0-2.24 1.04-2.24 2.32 0 1.28 1 2.32 2.24 2.32 1.24 0 2.24-1.04 2.24-2.32zM629.76 106.005c0-1.28-1-2.32-2.24-2.32-1.24 0-2.24 1.04-2.24 2.32 0 1.28 1 2.32 2.24 2.32 1.24 0 2.24-1.04 2.24-2.32zM731.84 106.005c0-1.28-1.03-2.32-2.32-2.32-1.29 0-2.32 1.04-2.32 2.32 0 1.28 1.03 2.32 2.32 2.32 1.29 0 2.32-1.04 2.32-2.32zM731.84 194.725c0-1.28-1.03-2.32-2.32-2.32-1.29 0-2.32 1.04-2.32 2.32 0 1.28 1.03 2.32 2.32 2.32 1.29 0 2.32-1.04 2.32-2.32zM543.04 5.925c0-1.28-1.03-2.32-2.32-2.32-1.29 0-2.32 1.04-2.32 2.32 0 1.28 1.03 2.32 2.32 2.32 1.29 0 2.32-1.04 2.32-2.32z" fill-rule="evenodd" stroke="#000" stroke-width=".64" stroke-linecap="round" stroke-linejoin="round" stroke-miterlimit="10"/>
</svg>
