<svg xmlns="http://www.w3.org/2000/svg" viewBox="0 0 554.249 422.861">
  <path d="M10.245 58.221h43.2M10.245 69.581h43.2M53.445 69.581l11.04-5.6M64.485 63.981l-11.04-5.76M10.245 69.581v-11.36" fill="none" stroke="#000" stroke-width=".64" stroke-linecap="round" stroke-linejoin="round" stroke-miterlimit="10"/>
  <text transform="matrix(.03097 0 0 .02978 12.317 67.499)" style="-inkscape-font-specification:sans-serif" font-weight="400" font-size="327.68" font-family="sans-serif" fill="#008020">
    <tspan x="0 239.20639 403.04639 589.82397 773.32477 956.82556 1127.2191" y="0">wz_base</tspan>
  </text>
  <path d="M65.765 62.381h-2.88v2.88h2.88z" fill="none" stroke="red" stroke-width=".64" stroke-linecap="round" stroke-linejoin="round" stroke-miterlimit="10"/>
  <path d="M.325 20.461h53.12M.325 31.821h53.12M53.445 31.821l11.04-5.6M64.485 26.221l-11.04-5.76M.325 31.821v-11.36" fill="none" stroke="#000" stroke-width=".64" stroke-linecap="round" stroke-linejoin="round" stroke-miterlimit="10"/>
  <text transform="matrix(.03097 0 0 .02978 2.56 29.74)" style="-inkscape-font-specification:sans-serif" font-weight="400" font-size="327.68" font-family="sans-serif" fill="#008020">
    <tspan x="0 180.224 367.00159 553.77917 665.19037 851.96796 1019.0848 1182.9248 1369.7024 1441.792" y="0">address_in</tspan>
  </text>
  <path d="M65.765 24.621h-2.88v2.88h2.88z" fill="none" stroke="red" stroke-width=".64" stroke-linecap="round" stroke-linejoin="round" stroke-miterlimit="10"/>
  <path d="M514.245 103.501h-30.72M514.245 114.861h-30.72M483.525 114.861v-11.36M514.245 103.501l11.04 5.76M525.285 109.261l-11.04 5.6" fill="none" stroke="#000" stroke-width=".64" stroke-linecap="round" stroke-linejoin="round" stroke-miterlimit="10"/>
  <text transform="matrix(.03097 0 0 .02978 486.235 112.781)" style="-inkscape-font-specification:sans-serif" font-weight="400" font-size="327.68" font-family="sans-serif" fill="#008020">
    <tspan x="0 275.25119 458.75198 553.77917 717.6192" y="0">match</tspan>
  </text>
  <path d="M484.965 107.661h-2.88v2.88h2.88z" fill="none" stroke="red" stroke-width=".64" stroke-linecap="round" stroke-linejoin="round" stroke-miterlimit="10"/>
  <path d="M542.885 398.061h-59.36M542.885 409.421h-59.36M483.525 409.421v-11.36M542.885 398.061l11.04 5.76M553.925 403.821l-11.04 5.6" fill="none" stroke="#000" stroke-width=".64" stroke-linecap="round" stroke-linejoin="round" stroke-miterlimit="10"/>
  <text transform="matrix(.03097 0 0 .02978 486.071 407.34)" style="-inkscape-font-specification:sans-serif" font-weight="400" font-size="327.68" font-family="sans-serif" fill="#008020">
    <tspan x="0 180.224 367.00159 553.77917 665.19037 851.96796 1019.0848 1182.9248 1369.7024 1556.48 1739.9807" y="0">address_out</tspan>
  </text>
  <path d="M484.965 402.221h-2.88v2.88h2.88z" fill="none" stroke="red" stroke-width=".64" stroke-linecap="round" stroke-linejoin="round" stroke-miterlimit="10"/>
  <path d="M237.925 75.181h-30.08v14.88h30.08z" fill="none" stroke="#000" stroke-width=".64" stroke-linecap="round" stroke-linejoin="round" stroke-miterlimit="10"/>
  <path d="M242.725 82.701h-4.64M245.605 82.701h-2.88" fill="none" stroke="#c04040" stroke-width=".64" stroke-linecap="round" stroke-linejoin="round" stroke-miterlimit="10"/>
  <text transform="translate(207.845 73.581)" style="-inkscape-font-specification:sans-serif" font-weight="400" font-size="7.52" font-family="sans-serif" fill="#c04040">
    <tspan x="0 5.4304938 11.371064 16.801558 21.764566" y="0">CONST</tspan>
  </text>
  <path d="M237.925 165.741h-30.08v15.04h30.08z" fill="none" stroke="#000" stroke-width=".64" stroke-linecap="round" stroke-linejoin="round" stroke-miterlimit="10"/>
  <path d="M242.725 173.421h-4.64M245.605 173.421h-2.88" fill="none" stroke="#c04040" stroke-width=".64" stroke-linecap="round" stroke-linejoin="round" stroke-miterlimit="10"/>
  <text transform="translate(207.845 164.141)" style="-inkscape-font-specification:sans-serif" font-weight="400" font-size="7.52" font-family="sans-serif" fill="#c04040">
    <tspan x="0 5.4304938 11.371064 16.801558 21.764566" y="0">CONST</tspan>
  </text>
  <path d="M124.005 26.061h4.64M117.285 26.061h6.72" fill="none" stroke="#c04040" stroke-width=".64" stroke-linecap="round" stroke-linejoin="round" stroke-miterlimit="10"/>
  <text transform="translate(130.085 28.941)" style="-inkscape-font-specification:sans-serif" font-weight="400" font-size="7.52" font-family="sans-serif">
    <tspan x="0" y="0" style="-inkscape-font-specification:sans-serif">A</tspan>
  </text>
  <path d="M124.005 63.821h4.64M117.285 63.821h6.72" fill="none" stroke="#c04040" stroke-width=".64" stroke-linecap="round" stroke-linejoin="round" stroke-miterlimit="10"/>
  <text transform="translate(130.085 66.701)" style="-inkscape-font-specification:sans-serif" font-weight="400" font-size="7.52" font-family="sans-serif">
    <tspan x="0" y="0" style="-inkscape-font-specification:sans-serif">B</tspan>
  </text>
  <path d="M163.365 44.941h-4.48M170.085 44.941h-6.72" fill="none" stroke="#c04040" stroke-width=".64" stroke-linecap="round" stroke-linejoin="round" stroke-miterlimit="10"/>
  <path d="M128.645 11.021l30.24 15.04v37.76l-30.24 15.2v-28.32l13.12-5.76-13.12-5.6v-28.32" fill="none" stroke="#000" stroke-width=".64" stroke-linecap="round" stroke-linejoin="round" stroke-miterlimit="10"/>
  <text transform="matrix(.03097 0 0 .02978 143.68 48.622)" style="-inkscape-font-specification:sans-serif" font-weight="400" font-size="327.68" font-family="sans-serif">
    <tspan x="0" y="0" style="-inkscape-font-specification:sans-serif">−</tspan>
  </text>
  <text transform="translate(117.285 5.581)" style="-inkscape-font-specification:sans-serif" font-weight="400" font-size="7.52" font-family="sans-serif" fill="#c04040">
    <tspan x="0 4.9630084 10.393502" y="0">SUB</tspan>
  </text>
  <path d="M275.045 44.941h4.64M268.325 44.941h6.72" fill="none" stroke="#c04040" stroke-width=".64" stroke-linecap="round" stroke-linejoin="round" stroke-miterlimit="10"/>
  <text transform="translate(281.125 47.821)" style="-inkscape-font-specification:sans-serif" font-weight="400" font-size="7.52" font-family="sans-serif">
    <tspan x="0" y="0" style="-inkscape-font-specification:sans-serif">A</tspan>
  </text>
  <path d="M275.045 82.701h4.64M268.325 82.701h6.72" fill="none" stroke="#c04040" stroke-width=".64" stroke-linecap="round" stroke-linejoin="round" stroke-miterlimit="10"/>
  <text transform="translate(281.125 85.581)" style="-inkscape-font-specification:sans-serif" font-weight="400" font-size="7.52" font-family="sans-serif">
    <tspan x="0" y="0" style="-inkscape-font-specification:sans-serif">B</tspan>
  </text>
  <path d="M314.405 63.821h-4.48M321.125 63.821h-6.72" fill="none" stroke="#c04040" stroke-width=".64" stroke-linecap="round" stroke-linejoin="round" stroke-miterlimit="10"/>
  <path d="M279.685 29.901l30.24 15.04v37.76l-30.24 15.2v-28.32l13.12-5.76-13.12-5.6v-28.32" fill="none" stroke="#000" stroke-width=".64" stroke-linecap="round" stroke-linejoin="round" stroke-miterlimit="10"/>
  <text transform="matrix(.03097 0 0 .02978 294.717 67.499)" style="-inkscape-font-specification:sans-serif" font-weight="400" font-size="327.68" font-family="sans-serif">
    <tspan x="0" y="0" style="-inkscape-font-specification:sans-serif">≥</tspan>
  </text>
  <text transform="translate(268.325 24.461)" style="-inkscape-font-specification:sans-serif" font-weight="400" font-size="7.52" font-family="sans-serif" fill="#c04040">
    <tspan x="0 5.9405708 10.53391" y="0">GTE</tspan>
  </text>
  <path d="M275.045 135.661h4.64M268.325 135.661h6.72" fill="none" stroke="#c04040" stroke-width=".64" stroke-linecap="round" stroke-linejoin="round" stroke-miterlimit="10"/>
  <text transform="translate(281.125 138.381)" style="-inkscape-font-specification:sans-serif" font-weight="400" font-size="7.52" font-family="sans-serif">
    <tspan x="0" y="0" style="-inkscape-font-specification:sans-serif">A</tspan>
  </text>
  <path d="M275.045 173.421h4.64M268.325 173.421h6.72" fill="none" stroke="#c04040" stroke-width=".64" stroke-linecap="round" stroke-linejoin="round" stroke-miterlimit="10"/>
  <text transform="translate(281.125 176.141)" style="-inkscape-font-specification:sans-serif" font-weight="400" font-size="7.52" font-family="sans-serif">
    <tspan x="0" y="0" style="-inkscape-font-specification:sans-serif">B</tspan>
  </text>
  <path d="M314.405 154.541h-4.48M321.125 154.541h-6.72" fill="none" stroke="#c04040" stroke-width=".64" stroke-linecap="round" stroke-linejoin="round" stroke-miterlimit="10"/>
  <path d="M279.685 120.461l30.24 15.2v37.76l-30.24 15.04v-28.32l13.12-5.6-13.12-5.76v-28.32" fill="none" stroke="#000" stroke-width=".64" stroke-linecap="round" stroke-linejoin="round" stroke-miterlimit="10"/>
  <text transform="matrix(.03097 0 0 .02978 294.717 158.06)" style="-inkscape-font-specification:sans-serif" font-weight="400" font-size="327.68" font-family="sans-serif">
    <tspan x="0" y="0" style="-inkscape-font-specification:sans-serif">&lt;</tspan>
  </text>
  <text transform="translate(268.325 115.181)" style="-inkscape-font-specification:sans-serif" font-weight="400" font-size="7.52" font-family="sans-serif" fill="#c04040">
    <tspan x="0 4.1358404" y="0">LT</tspan>
  </text>
  <path d="M398.245 127.981h1.28l1.28-.16 1.28-.32 1.28-.48 1.28-.64 1.12-.64 1.28-.8 1.12-.8.96-.96 1.12-.96.8-1.12.96-1.28.8-1.12.64-1.28.64-1.28.48-1.44.48-1.28.32-1.44.16-1.44v-1.44h0v-1.28l-.16-1.44-.32-1.44-.48-1.44-.48-1.28-.64-1.28-.64-1.28-.8-1.28-.96-1.12-.8-1.12-1.12-.96-.96-.96-1.12-.8-1.28-.8-1.12-.64-1.28-.64-1.28-.48-1.28-.32-1.28-.16-1.28-.16h-24.16v37.76h24.16" fill="none" stroke="#000" stroke-width=".64" stroke-linecap="round" stroke-linejoin="round" stroke-miterlimit="10"/>
  <path d="M369.445 97.901h4.64M362.725 97.901h6.72M369.445 120.461h4.64M362.725 120.461h6.72M420.165 109.101h-4.64M426.885 109.101h-6.72" fill="none" stroke="#c04040" stroke-width=".64" stroke-linecap="round" stroke-linejoin="round" stroke-miterlimit="10"/>
  <path d="M394.565 422.541h1.28l1.28-.32 1.28-.32 1.28-.32 1.12-.64 1.28-.64 1.12-.8 1.12-.8 1.12-.96.96-1.12.96-1.12.8-1.12.8-1.12.8-1.28.64-1.28.48-1.44.32-1.28.32-1.44.16-1.44.16-1.44h0l-.16-1.44-.16-1.28-.32-1.44-.32-1.44-.48-1.28-.64-1.28-.8-1.28-.8-1.28-.8-1.12-.96-1.12-.96-.96-1.12-.96-1.12-.96-1.12-.64-1.28-.8-1.12-.48-1.28-.48-1.28-.32-1.28-.16-1.28-.16h-24.32v37.76h24.32" fill="none" stroke="#000" stroke-width=".64" stroke-linecap="round" stroke-linejoin="round" stroke-miterlimit="10"/>
  <path d="M365.765 392.301h4.48M358.885 392.301h6.88M365.765 415.021h4.48M358.885 415.021h6.88M416.325 403.661h-4.48M423.205 403.661h-6.88" fill="none" stroke="#c04040" stroke-width=".64" stroke-linecap="round" stroke-linejoin="round" stroke-miterlimit="10"/>
  <path d="M64.485 26.061h52.8M64.485 63.821h52.8M196.645 135.661h71.68M79.525 248.941h101.92" fill="none" stroke="#00f" stroke-width="2.88" stroke-linecap="round" stroke-linejoin="round" stroke-miterlimit="10"/>
  <path d="M321.125 154.541h22.72M343.845 154.541v-34.08M343.845 120.461h18.88M321.125 63.821h22.72M343.845 63.821v34.08M343.845 97.901h18.88" fill="none" stroke="#00f" stroke-width=".64" stroke-linecap="round" stroke-linejoin="round" stroke-miterlimit="10"/>
  <path d="M223.045 214.701v68l-30.24-15.04v-37.76l30.24-15.2" fill="none" stroke="#000" stroke-width=".64" stroke-linecap="round" stroke-linejoin="round" stroke-miterlimit="10"/>
  <path d="M227.525 248.941h-4.48M234.405 248.941h-6.88" fill="none" stroke="#c04040" stroke-width=".64" stroke-linecap="round" stroke-linejoin="round" stroke-miterlimit="10"/>
  <text transform="translate(215.685 251.661)" style="-inkscape-font-specification:sans-serif" font-weight="400" font-size="7.52" font-family="sans-serif">
    <tspan x="0" y="0" style="-inkscape-font-specification:sans-serif">O</tspan>
  </text>
  <path d="M188.325 248.941h4.48M181.445 248.941h6.88" fill="none" stroke="#c04040" stroke-width=".64" stroke-linecap="round" stroke-linejoin="round" stroke-miterlimit="10"/>
  <text transform="translate(194.245 251.661)" style="-inkscape-font-specification:sans-serif" font-weight="400" font-size="7.52" font-family="sans-serif">
    <tspan x="0" y="0" style="-inkscape-font-specification:sans-serif">I</tspan>
  </text>
  <text transform="translate(188.965 205.741)" style="-inkscape-font-specification:sans-serif" font-weight="400" font-size="7.52" font-family="sans-serif" fill="#c04040">
    <tspan x="0 5.4304938 10.393502 15.823996 21.764566 27.195061 32.15807" y="0">DECODER</tspan>
  </text>
  <text transform="translate(185.285 213.261)" style="-inkscape-font-specification:sans-serif" font-weight="400" font-size="7.52" font-family="sans-serif" fill="#c04040">
    <tspan x="0 1.7295333 5.9116378 10.273069 14.40891 16.965611 22.396105 27.659903 31.494955 34.051655 36.140873 38.230087 40.319305 45.749798 51.18029" y="0">log2(Dwz) : Dwz</tspan>
  </text>
  <text transform="matrix(.03097 0 0 .02978 68.159 23.979)" style="-inkscape-font-specification:sans-serif" font-weight="400" font-size="327.68" font-family="sans-serif" fill="#008020">
    <tspan x="0 180.224 367.00159 458.75198 645.5296 832.30719 996.14716 1163.2639 1274.6752" y="0">data_sz-1</tspan>
  </text>
  <path d="M121.125 18.541l-15.2 15.04" fill="none" stroke="#000" stroke-width=".64" stroke-linecap="round" stroke-linejoin="round" stroke-miterlimit="10"/>
  <text transform="matrix(.03097 0 0 .02978 68.159 61.742)" style="-inkscape-font-specification:sans-serif" font-weight="400" font-size="327.68" font-family="sans-serif" fill="#008020">
    <tspan x="0 180.224 367.00159 458.75198 645.5296 832.30719 996.14716 1163.2639 1274.6752" y="0">data_sz-1</tspan>
  </text>
  <path d="M121.125 56.301l-15.2 15.04" fill="none" stroke="#000" stroke-width=".64" stroke-linecap="round" stroke-linejoin="round" stroke-miterlimit="10"/>
  <text transform="matrix(0 -.03097 .02978 0 194.402 97.9)" style="-inkscape-font-specification:sans-serif" font-weight="400" font-size="327.68" font-family="sans-serif" fill="#008020">
    <tspan x="0 180.224 367.00159 458.75198 645.5296 832.30719 996.14716" y="0">data_sz</tspan>
  </text>
  <path d="M188.965 54.221l15.2 15.04" fill="none" stroke="#000" stroke-width=".64" stroke-linecap="round" stroke-linejoin="round" stroke-miterlimit="10"/>
  <path d="M245.605 82.701h22.72M245.605 173.421h22.72" fill="none" stroke="#00f" stroke-width="2.88" stroke-linecap="round" stroke-linejoin="round" stroke-miterlimit="10"/>
  <path d="M64.485 233.741l15.04 15.2" fill="none" stroke="#c04040" stroke-width=".64" stroke-linecap="round" stroke-linejoin="round" stroke-miterlimit="10"/>
  <text transform="matrix(.03097 0 0 .02978 79.516 246.86)" style="-inkscape-font-specification:sans-serif" font-weight="400" font-size="327.68" font-family="sans-serif" fill="#008020">
    <tspan x="0 180.224 275.25119 367.00159 530.84161 717.6192 812.64636 904.39679 976.48639 1163.2639 1346.7648 1533.5424 1648.2303 1884.1599 2123.3665 2287.2063 2401.8943 2516.5823 2696.8064 2788.5566 2975.3342" y="0">offset[log2(Dwz)-1:0]</tspan>
  </text>
  <path d="M80.805 247.341h-2.72v2.88h2.72z" fill="none" stroke="red" stroke-width=".64" stroke-linecap="round" stroke-linejoin="round" stroke-miterlimit="10"/>
  <path d="M260.645 271.501h-15.04v30.08h15.04z" fill="none" stroke="#000" stroke-width=".64" stroke-linecap="round" stroke-linejoin="round" stroke-miterlimit="10"/>
  <path d="M253.285 306.221v-4.48M253.285 309.261v-3.04" fill="none" stroke="#c04040" stroke-width=".64" stroke-linecap="round" stroke-linejoin="round" stroke-miterlimit="10"/>
  <text transform="translate(264.485 277.421)" style="-inkscape-font-specification:sans-serif" font-weight="400" font-size="7.52" font-family="sans-serif" fill="#c04040">
    <tspan x="0 5.4304938 11.371064 16.801558 21.764566" y="0">CONST</tspan>
  </text>
  <path d="M253.285 309.261v90.72M196.645 44.941h71.68" fill="none" stroke="#00f" stroke-width="2.88" stroke-linecap="round" stroke-linejoin="round" stroke-miterlimit="10"/>
  <text transform="matrix(.03097 0 0 .02978 426.876 401.576)" style="-inkscape-font-specification:sans-serif" font-weight="400" font-size="327.68" font-family="sans-serif" fill="#008020">
    <tspan x="0 180.224 367.00159 458.75198 645.5296 832.30719 996.14716 1163.2639 1274.6752" y="0">data_sz-1</tspan>
  </text>
  <path d="M479.845 396.141l-15.2 15.04" fill="none" stroke="#000" stroke-width=".64" stroke-linecap="round" stroke-linejoin="round" stroke-miterlimit="10"/>
  <text transform="matrix(.03097 0 0 .02978 219.198 86.38)" style="-inkscape-font-specification:sans-serif" font-weight="400" font-size="327.68" font-family="sans-serif">
    <tspan x="0" y="0" style="-inkscape-font-specification:sans-serif">0</tspan>
  </text>
  <text transform="matrix(.03097 0 0 .02978 213.599 176.94)" style="-inkscape-font-specification:sans-serif" font-weight="400" font-size="327.68" font-family="sans-serif">
    <tspan x="0 239.20639 475.13599" y="0">Dwz</tspan>
  </text>
  <text transform="matrix(.03097 0 0 .02978 249.917 290.219)" style="-inkscape-font-specification:sans-serif" font-weight="400" font-size="327.68" font-family="sans-serif">
    <tspan x="0 72.0896" y="0">id</tspan>
  </text>
  <text transform="matrix(0 -.03097 .02978 0 251.04 383.017)" style="-inkscape-font-specification:sans-serif" font-weight="400" font-size="327.68" font-family="sans-serif" fill="#008020">
    <tspan x="0 91.750397 275.25119 458.75198 553.77917 737.27997 924.05756 1091.1743 1255.0144 1369.7024 1556.48 1648.2303 1884.1599 2123.3665 2287.2063" y="0">[data_sz-2:Dwz]</tspan>
  </text>
  <path d="M254.565 307.821h-2.88v2.88h2.88z" fill="none" stroke="red" stroke-width=".64" stroke-linecap="round" stroke-linejoin="round" stroke-miterlimit="10"/>
  <text transform="matrix(0 -.03097 .02978 0 300.001 352.614)" style="-inkscape-font-specification:sans-serif" font-weight="400" font-size="327.68" font-family="sans-serif" fill="#008020">
    <tspan x="0 91.750397 330.95679 566.88641 734.00317 845.41437 1032.192 1127.2191 1307.4431" y="0">[Dwz-1:0]</tspan>
  </text>
  <path d="M303.685 307.821h-2.88v2.88h2.88z" fill="none" stroke="red" stroke-width=".64" stroke-linecap="round" stroke-linejoin="round" stroke-miterlimit="10"/>
  <path d="M234.405 248.941h67.84" fill="none" stroke="#00f" stroke-width="2.88" stroke-linecap="round" stroke-linejoin="round" stroke-miterlimit="10"/>
  <path d="M253.285 399.981l15.04 15.04M302.245 399.981l15.2 15.04" fill="none" stroke="#c04040" stroke-width=".64" stroke-linecap="round" stroke-linejoin="round" stroke-miterlimit="10"/>
  <path d="M317.445 415.021h-49.12M196.645 44.941h-26.56M196.645 44.941v90.72" fill="none" stroke="#00f" stroke-width="2.88" stroke-linecap="round" stroke-linejoin="round" stroke-miterlimit="10"/>
  <path d="M445.765 109.101h37.76M426.885 109.101h18.88M445.765 109.101v139.84M336.325 248.941h109.44M336.325 248.941v143.36M336.325 392.301h22.56" fill="none" stroke="red" stroke-width=".64" stroke-linecap="round" stroke-linejoin="round" stroke-miterlimit="10"/>
  <path d="M483.525 403.661h-60.32M317.445 415.021h41.44M302.245 248.941v151.04M196.645 135.661H64.485M64.485 135.661v98.08" fill="none" stroke="#00f" stroke-width="2.88" stroke-linecap="round" stroke-linejoin="round" stroke-miterlimit="10"/>
  <path d="M198.885 44.941c0-1.23-1.03-2.24-2.32-2.24-1.29 0-2.32 1.01-2.32 2.24 0 1.23 1.03 2.24 2.32 2.24 1.29 0 2.32-1.01 2.32-2.24zM198.885 135.581c0-1.23-1.03-2.24-2.32-2.24-1.29 0-2.32 1.01-2.32 2.24 0 1.23 1.03 2.24 2.32 2.24 1.29 0 2.32-1.01 2.32-2.24zM319.685 415.021c0-1.23-1-2.24-2.24-2.24-1.24 0-2.24 1.01-2.24 2.24 0 1.23 1 2.24 2.24 2.24 1.24 0 2.24-1.01 2.24-2.24zM448.005 109.181c0-1.23-1-2.24-2.24-2.24-1.24 0-2.24 1.01-2.24 2.24 0 1.23 1 2.24 2.24 2.24 1.24 0 2.24-1.01 2.24-2.24z" fill-rule="evenodd" stroke="#000" stroke-width=".64" stroke-linecap="round" stroke-linejoin="round" stroke-miterlimit="10"/>
</svg>
